HIERARCHY
ROOT joint_Root
{
	OFFSET 0.0 0.0 0.0
	CHANNELS 6 Xposition Yposition Zposition Zrotation Xrotation Yrotation 
	JOINT Hips
	{
		OFFSET -17.1583 93.1646 452.98
		CHANNELS 6 Xposition Yposition Zposition Zrotation Xrotation Yrotation 
		JOINT Spine
		{
			OFFSET 15.7357 0.0 0.0
			CHANNELS 6 Xposition Yposition Zposition Zrotation Xrotation Yrotation 
			JOINT Chest
			{
				OFFSET 8.98455 -0.406207 0.0
				CHANNELS 6 Xposition Yposition Zposition Zrotation Xrotation Yrotation 
				JOINT Neck
				{
					OFFSET 16.3773 0.0 0.0
					CHANNELS 6 Xposition Yposition Zposition Zrotation Xrotation Yrotation 
					JOINT Head
					{
						OFFSET 6.45672 0.0 0.0
						CHANNELS 6 Xposition Yposition Zposition Zrotation Xrotation Yrotation 
						End Site
						{
							OFFSET 0.0 0.0 0.0
						}
					}
				}
				JOINT Shoulder_L
				{
					OFFSET 12.9942 -0.242716 4.98039
					CHANNELS 6 Xposition Yposition Zposition Zrotation Xrotation Yrotation 
					JOINT UpperArm_L
					{
						OFFSET 5.34809 0.0 0.0
						CHANNELS 6 Xposition Yposition Zposition Zrotation Xrotation Yrotation 
						JOINT LowerArm_L
						{
							OFFSET 24.3286 1.87007e-05 0.0
							CHANNELS 6 Xposition Yposition Zposition Zrotation Xrotation Yrotation 
							JOINT Hand_L
							{
								OFFSET 22.2916 0.0 0.0
								CHANNELS 6 Xposition Yposition Zposition Zrotation Xrotation Yrotation 
								End Site
								{
									OFFSET 0.0 0.0 0.0
								}
							}
						}
					}
				}
				JOINT Shoulder_R
				{
					OFFSET 12.9945 -0.242716 -4.98039
					CHANNELS 6 Xposition Yposition Zposition Zrotation Xrotation Yrotation 
					JOINT UpperArm_R
					{
						OFFSET -5.34813 0.0 0.0
						CHANNELS 6 Xposition Yposition Zposition Zrotation Xrotation Yrotation 
						JOINT LowerArm_R
						{
							OFFSET -24.3289 0.000322201 0.0
							CHANNELS 6 Xposition Yposition Zposition Zrotation Xrotation Yrotation 
							JOINT Hand_R
							{
								OFFSET -22.2915 -0.000108084 0.0
								CHANNELS 6 Xposition Yposition Zposition Zrotation Xrotation Yrotation 
								End Site
								{
									OFFSET 0.0 0.0 0.0
								}
							}
						}
					}
				}
			}
		}
		JOINT UpperLeg_L
		{
			OFFSET -2.19248 -6.46944 0.0
			CHANNELS 6 Xposition Yposition Zposition Zrotation Xrotation Yrotation 
			JOINT LowerLeg_L
			{
				OFFSET 39.0811 0.0 -1.23785e-05
				CHANNELS 6 Xposition Yposition Zposition Zrotation Xrotation Yrotation 
				JOINT Foot_L
				{
					OFFSET 40.9854 0.0 -1.26872e-05
					CHANNELS 6 Xposition Yposition Zposition Zrotation Xrotation Yrotation 
					JOINT Toes_L
					{
						OFFSET 11.7543 0.0 0.0
						CHANNELS 6 Xposition Yposition Zposition Zrotation Xrotation Yrotation 
						End Site
						{
							OFFSET 0.0 0.0 0.0
						}
					}
				}
			}
		}
		JOINT UpperLeg_R
		{
			OFFSET -2.19251 6.46944 0.0
			CHANNELS 6 Xposition Yposition Zposition Zrotation Xrotation Yrotation 
			JOINT LowerLeg_R
			{
				OFFSET -39.0811 -0.00228153 -0.0401928
				CHANNELS 6 Xposition Yposition Zposition Zrotation Xrotation Yrotation 
				JOINT Foot_R
				{
					OFFSET -40.9854 0.0 0.0
					CHANNELS 6 Xposition Yposition Zposition Zrotation Xrotation Yrotation 
					JOINT Toes_R
					{
						OFFSET -11.7543 0.0 0.0
						CHANNELS 6 Xposition Yposition Zposition Zrotation Xrotation Yrotation 
						End Site
						{
							OFFSET 0.0 0.0 0.0
						}
					}
				}
			}
		}
	}
}
MOTION
Frames:	6
Frame Time:	0.0333333
0.000000 0.000000 0.000000 0.000000 0.000000 -0.000000 -1.923990 92.961600 1.240150 87.981600 0.365348 1.126380 15.735700 0.000005 -0.000001 89.002700 85.760600 -87.504400 8.984550 -0.406207 -0.000000 0.716455 -0.239663 2.995830 16.377300 -0.000001 -0.000001 -3.538210 1.917460 -1.424400 6.456720 -0.000001 -0.000000 1.263890 2.147640 0.118476 12.994200 -0.242716 4.980390 -91.584800 5.093220 -72.689600 5.348090 -0.000007 -0.000001 -72.244500 17.575300 -8.270340 24.328600 0.000019 0.000005 4.418290 29.100300 -9.027980 22.291600 -0.000001 0.000005 -12.776700 5.199910 2.717380 12.994500 -0.242716 -4.980390 89.423000 1.973190 -73.695700 -5.348130 -0.000001 -0.000004 -70.817900 17.888400 -8.875290 -24.328900 0.000322 -0.000009 -0.638348 -7.988760 -4.583390 -22.291500 -0.000108 -0.000004 -12.974100 5.057000 6.090690 -2.192480 -6.469440 -0.000000 -171.769000 -5.841530 0.437508 39.081100 -0.000007 -0.000012 -0.012133 0.047185 14.420000 40.985400 -0.000006 -0.000013 -1.914650 15.012800 -68.931900 11.754300 -0.000000 0.000003 -0.001995 0.196287 -8.613240 -2.192510 6.469440 -0.000001 177.967000 6.704130 -177.642000 -39.081100 -0.002282 -0.040193 0.018742 -0.072418 12.010100 -40.985400 0.000008 0.000006 -5.258310 4.118610 -68.490600 -11.754300 -0.000006 -0.000006 -0.011353 0.281149 -5.148170
0.000000 0.000000 0.000000 0.000000 0.000000 -0.000000 -1.836160 93.023700 1.477980 88.054400 0.595765 0.123384 15.735700 0.000005 -0.000001 88.751100 86.516500 -87.220400 8.984550 -0.406207 -0.000000 -0.795253 -0.266133 3.058090 16.377300 -0.000001 -0.000001 -3.884940 1.811130 -1.453270 6.456720 -0.000001 -0.000000 1.614310 2.099050 -0.138852 12.994200 -0.242716 4.980390 -91.463300 4.470640 -71.854200 5.348090 -0.000007 -0.000001 -69.618000 6.451500 -9.204250 24.328600 0.000019 0.000005 2.376650 29.503900 -4.817810 22.291600 -0.000001 0.000005 -18.052500 5.182110 3.180020 12.994500 -0.242716 -4.980390 89.603900 1.293110 -72.964600 -5.348130 -0.000001 -0.000004 -68.543100 8.215640 -8.902490 -24.328900 0.000322 -0.000009 -0.001329 -9.111570 -0.000054 -22.291500 -0.000108 -0.000004 -15.513300 5.008540 7.144820 -2.192480 -6.469440 -0.000000 -171.992000 -5.870460 0.017952 39.081100 -0.000007 -0.000012 -0.009607 0.039956 13.518400 40.985400 -0.000006 -0.000013 -1.925620 15.117000 -68.822300 11.754300 -0.000000 0.000003 -0.002116 0.197783 -8.552410 -2.192510 6.469440 -0.000001 177.846000 6.810140 -177.937000 -39.081100 -0.002282 -0.040193 0.010381 -0.036535 10.911900 -40.985400 0.000008 0.000006 -6.119550 4.139470 -67.890600 -11.754300 -0.000006 -0.000006 -0.011525 0.282371 -5.098140
0.000000 0.000000 0.000000 0.000000 0.000000 -0.000000 -1.738600 93.086000 1.757970 88.106400 0.797490 -1.083340 15.735700 0.000005 -0.000001 89.139100 87.368300 -87.586300 8.984550 -0.406207 -0.000000 -2.498440 -0.218083 3.100710 16.377300 -0.000001 -0.000001 -4.604540 1.720270 -1.554360 6.456720 -0.000001 -0.000000 2.081980 2.100680 -0.414224 12.994200 -0.242716 4.980390 -91.331300 3.866450 -70.983100 5.348090 -0.000007 -0.000001 -64.982000 -5.145100 -10.060400 24.328600 0.000019 0.000005 1.428130 30.801100 -2.787490 22.291600 -0.000001 0.000005 -23.296100 5.115400 4.782620 12.994500 -0.242716 -4.980390 89.912200 0.272749 -72.143700 -5.348130 -0.000001 -0.000004 -64.870200 -4.113400 -8.560150 -24.328900 0.000322 -0.000009 -0.001508 -8.190370 -0.000049 -22.291500 -0.000108 -0.000004 -17.444400 4.919360 8.995290 -2.192480 -6.469440 -0.000000 -172.220000 -5.901990 -0.530232 39.081100 -0.000007 -0.000012 -0.005511 0.024771 12.540500 40.985400 -0.000006 -0.000013 -1.961580 15.114000 -68.779200 11.754300 -0.000000 0.000003 -0.002312 0.200187 -8.454640 -2.192510 6.469440 -0.000001 177.753000 6.987570 -178.317000 -39.081100 -0.002282 -0.040193 0.004721 -0.008159 9.613920 -40.985400 0.000008 0.000006 -7.174100 4.219210 -67.201200 -11.754300 -0.000006 -0.000006 -0.011707 0.283645 -5.045960
0.000000 0.000000 0.000000 0.000000 0.000000 -0.000000 -1.637770 93.134700 2.118760 88.201100 1.063820 -2.187190 15.735700 0.000005 -0.000001 88.998900 88.164600 -87.474500 8.984550 -0.406207 -0.000000 -4.091020 -0.221732 3.042290 16.377300 -0.000001 -0.000001 -5.570810 1.712500 -1.669550 6.456720 -0.000001 -0.000000 2.350370 2.164800 -0.681107 12.994200 -0.242716 4.980390 -91.174000 3.218330 -69.945400 5.348090 -0.000007 -0.000001 -58.686900 -15.123000 -11.160500 24.328600 0.000019 0.000005 1.215140 31.715700 -2.310510 22.291600 -0.000001 0.000005 -24.136400 5.035100 6.553580 12.994500 -0.242716 -4.980390 90.216500 -0.636300 -71.218500 -5.348130 -0.000001 -0.000004 -59.105800 -15.367700 -7.564690 -24.328900 0.000322 -0.000009 -0.000949 -5.102770 -0.000034 -22.291500 -0.000108 -0.000004 -17.884200 4.805370 11.212700 -2.192480 -6.469440 -0.000000 -172.400000 -5.859440 -0.983085 39.081100 -0.000007 -0.000012 -0.011375 0.055490 11.583700 40.985400 -0.000006 -0.000013 -2.578860 15.297200 -68.344200 11.754300 -0.000000 0.000003 -0.002291 0.199926 -8.465240 -2.192510 6.469440 -0.000001 177.592000 7.211730 -178.411000 -39.081100 -0.002282 -0.040193 0.002089 0.008808 8.095100 -40.985400 0.000008 0.000006 -8.264290 4.283900 -66.439900 -11.754300 -0.000006 -0.000006 -0.011448 0.281821 -5.120640
0.000000 0.000000 0.000000 0.000000 0.000000 -0.000000 -1.566190 93.156400 2.530060 88.299300 1.323480 -3.118880 15.735700 0.000005 -0.000001 83.902100 88.893100 -82.405200 8.984550 -0.406207 -0.000000 -5.557780 -0.408779 2.977030 16.377300 -0.000001 -0.000001 -6.575900 1.800950 -1.772590 6.456720 -0.000001 -0.000000 2.480970 2.509160 -1.151300 12.994200 -0.242716 4.980390 -90.944200 2.436130 -68.803000 5.348090 -0.000007 -0.000001 -51.587100 -24.293400 -12.355600 24.328600 0.000019 0.000005 1.055540 30.380800 -2.086210 22.291600 -0.000001 0.000005 -19.411300 4.956360 8.197990 12.994500 -0.242716 -4.980390 90.587700 -1.625510 -70.125500 -5.348130 -0.000001 -0.000004 -52.287800 -24.881000 -7.135600 -24.328900 0.000322 -0.000009 -0.001052 -5.626490 -0.000036 -22.291500 -0.000108 -0.000004 -14.486000 4.774990 11.786700 -2.192480 -6.469440 -0.000000 -172.501000 -5.681800 -1.380020 39.081100 -0.000007 -0.000012 -0.020475 0.106554 10.876800 40.985400 -0.000006 -0.000013 -3.557960 15.468800 -67.842100 11.754300 -0.000000 0.000003 -0.002250 0.199430 -8.485430 -2.192510 6.469440 -0.000001 177.475000 7.401180 -178.279000 -39.081100 -0.002282 -0.040193 0.002078 0.011018 6.559670 -40.985400 0.000008 0.000006 -8.973230 4.210310 -65.790600 -11.754300 -0.000006 -0.000006 -0.011393 0.281436 -5.136420
0.000000 0.000000 0.000000 0.000000 0.000000 -0.000000 -1.495340 93.135200 3.031140 88.326300 1.393380 -3.736410 15.735700 0.000005 -0.000001 59.403500 89.501100 -57.892400 8.984550 -0.406207 -0.000000 -6.896390 -0.700022 2.984960 16.377300 -0.000001 -0.000001 -7.291580 1.990840 -1.855550 6.456720 -0.000001 -0.000000 2.565170 3.040550 -1.674770 12.994200 -0.242716 4.980390 -90.598500 1.445970 -67.504600 5.348090 -0.000007 -0.000001 -44.393300 -32.264700 -13.865600 24.328600 0.000019 0.000005 0.902161 27.533400 -1.950900 22.291600 -0.000001 0.000005 -10.617000 4.793410 11.339000 12.994500 -0.242716 -4.980390 91.082600 -2.817780 -68.975800 -5.348130 -0.000001 -0.000004 -45.456300 -32.944400 -7.904160 -24.328900 0.000322 -0.000009 -0.000892 -10.045400 -0.000058 -22.291500 -0.000108 -0.000004 -7.654150 4.740480 12.411700 -2.192480 -6.469440 -0.000000 -172.530000 -5.828710 -1.430310 39.081100 -0.000007 -0.000012 -0.024662 0.134648 10.378700 40.985400 -0.000006 -0.000013 -3.972890 15.713600 -67.679600 11.754300 -0.000000 0.000003 -0.002267 0.199642 -8.476790 -2.192510 6.469440 -0.000001 177.398000 7.416050 -177.927000 -39.081100 -0.002282 -0.040193 0.002784 0.006032 5.332770 -40.985400 0.000008 0.000006 -9.577400 4.195090 -65.397000 -11.754300 -0.000006 -0.000006 -0.011488 0.282109 -5.108870
